# xmcd CD database file
#
# Track frame offsets:
#	150
#	14145
#	47762
#	63225
#	92237
#	123662
#	147962
#	176487
#	202787
#	234687
#	260012
#
# Disc length: 3686 seconds
#
# Revision: 0
# Processed by: cddbd v1.5.1PL2 Copyright (c) Steve Scherf et al.
# Submitted via: CDex 1.51
#
DISCID=a00e640b
DTITLE=Antonio Hart - The collected Antonio Hart
DYEAR=1998
DGENRE=Jazz
TTITLE0=Majority
TTITLE1=Jessica´s day
TTITLE2=Sticks
TTITLE3=Bewitched
TTITLE4=Black children
TTITLE5=Sack o´ woe (a bag o´trouble)
TTITLE6=Great grandmother´s song
TTITLE7=Organ grinder
TTITLE8=Don´t you know I care
TTITLE9=Puerto Rico
TTITLE10=Straight ahead
EXTD=YEAR: 1998
EXTT0=
EXTT1=
EXTT2=
EXTT3=
EXTT4=
EXTT5=
EXTT6=
EXTT7=
EXTT8=
EXTT9=
EXTT10=
PLAYORDER=
